# xmcd
#
# Track frame offsets: 
#        300
#        16129
#        36473
#        54051
#        78260
#        97303
#        111102
#        132805
#        151771
#        168228
#
# Disc length: 2480 seconds
#
# Revision: 0
# Processed by: cddbd v1.5.2PL0 Copyright (c) Steve Scherf et al.
# Submitted via: ExactAudioCopy v1.0b1
#
DISCID=7109ac0a
DTITLE=Bruce Willis - The Return Of Bruno
DYEAR=1986
DGENRE=Classic Soul
TTITLE0=Comin' Right Up
TTITLE1=Flirting With Disaster
TTITLE2=Respect Yourself
TTITLE3=Down In Hollywood
TTITLE4=Young Blood
TTITLE5=Under The Boardwalk
TTITLE6=Secret Agent Man James Bond I
TTITLE7=Jackpot (Bruno's Bop)
TTITLE8=Fun Time
TTITLE9=Lose Myself
EXTD=
EXTT0=
EXTT1=
EXTT2=
EXTT3=
EXTT4=
EXTT5=
EXTT6=
EXTT7=
EXTT8=
EXTT9=
PLAYORDER=
